<?xml version="1.0" encoding="utf-8"?>
<!-- Generator: Adobe Illustrator 23.0.1, SVG Export Plug-In . SVG Version: 6.00 Build 0)  -->
<svg version="1.1" id="Vrstva_1" xmlns="http://www.w3.org/2000/svg" xmlns:xlink="http://www.w3.org/1999/xlink" x="0px" y="0px"
	 width="1124.30005px" height="158.2px" viewBox="0 0 1124.30005 158.2" style="enable-background:new 0 0 1124.30005 158.2;"
	 xml:space="preserve">
<style type="text/css">
	.st0{display:none;}
	.st1{display:inline;fill:#333333;}
	.st2{fill:#FFFFFF;}
	.st3{clip-path:url(#SVGID_2_);fill:#FFFFFF;}
	.st4{clip-path:url(#SVGID_4_);fill:#FFFFFF;}
	.st5{clip-path:url(#SVGID_6_);fill:#FFFFFF;}
	.st6{clip-path:url(#SVGID_8_);fill:#FFFFFF;}
	.st7{clip-path:url(#SVGID_10_);fill:#FFFFFF;}
	.st8{fill:#E30613;}
	.st9{clip-path:url(#SVGID_12_);fill:#FFFFFF;}
	.st10{clip-path:url(#SVGID_14_);fill:#FFFFFF;}
	.st11{display:inline;fill:#2D2D2C;}
</style>
<g id="logo">
	<g id="Vrstva_5">
		<g>
			<path class="st2" d="M900.90002,60.4001L900.90002,60.4001c-0.09998-0.1-0.20001-0.2-0.29999-0.3
				c-3.20001-2.5-7.20001-4-11.90002-4h-12.90002c-11.79999,0-22.70001,9.5-24.29999,21.3l0,0l-3.40002,25.4l0,0
				c-1.5,11.8,6.79999,21.3,18.59998,21.3h12.90002c4.59998,0,9.09998-1.5,12.90002-4c0.09998-0.1,0.29999-0.2,0.40002-0.2l0,0
				c0.90002-0.7,1.70001-1.7,1.79999-2.8l0.40002-3.3c0.29999-2-1.09998-3.6-3.09998-3.6l0,0H887l0,0
				c-1.29999,0-2.5,0.3-3.59998,0.7c-0.29999,0.1-0.5,0.2-0.79999,0.3c-1.09998,0.5-2.40002,0.7-3.59998,0.7h-8.40002
				c-5.09998,0-8.70001-4.1-8-9.2l3.40002-25.4c0.70001-5.1,5.40002-9.2,10.5-9.2h8.40002l0,0c1.29999,0,2.40002,0.3,3.40002,0.7
				c0.20001,0.1,0.5,0.2,0.70001,0.3c1,0.5,2.20001,0.7,3.40002,0.7l0,0h5.09998l0,0c2,0,3.79999-1.6,4.09998-3.6l0.40002-3.3
				C902.09998,62.0001,901.70001,61.0001,900.90002,60.4001"/>
			<path class="st2" d="M937.09998,112.0001h-8.40002c-5.09998,0-8.70001-4.1-8-9.2l3.40002-25.4c0.70001-5.1,5.40002-9.2,10.5-9.2
				H943c5.09998,0,8.70001,4.1,8,9.2l-3.40002,25.4C946.90002,107.9001,942.20001,112.0001,937.09998,112.0001 M965.40002,77.4001
				c1.59998-11.8-6.79999-21.3-18.59998-21.3h-12.90002c-11.79999,0-22.70001,9.5-24.29999,21.3l0,0l-3.40002,25.4
				c-1.59998,11.8,6.79999,21.3,18.59998,21.3h12.90002c11.79999,0,22.70001-9.5,24.29999-21.3L965.40002,77.4001L965.40002,77.4001
				z"/>
			<path class="st2" d="M833.5,110.2001L833.5,110.2001h-7.20001l0,0c-2,0-3.79999,1.6-4.09998,3.6l-0.90002,6.7
				c-0.29999,2,1.09998,3.6,3.09998,3.6h7.20001c2,0,3.79999-1.6,4.09998-3.6l0.90002-6.7
				C837,111.8001,835.5,110.2001,833.5,110.2001"/>
			<path class="st2" d="M983,110.2001L983,110.2001h-7.20001l0,0c-2,0-3.79999,1.6-4.09998,3.6l-0.90002,6.7
				c-0.29999,2,1.09998,3.6,3.09998,3.6h7.20001c2,0,3.79999-1.6,4.09998-3.6l0.90002-6.7
				C986.40002,111.8001,985,110.2001,983,110.2001"/>
			<g>
				<g>
					<g>
						<defs>
							<rect id="SVGID_1_" y="0.0001" width="1124.30005" height="158.2"/>
						</defs>
						<clipPath id="SVGID_2_">
							<use xlink:href="#SVGID_1_"  style="overflow:visible;"/>
						</clipPath>
						<path class="st3" d="M129.3,139.70009c0.10001,0,0.2-0.10001,0.2-0.2l0.3-0.2c0.2-0.2,0.5-0.39999,0.7-0.60001
							c13.39999-11.59999,22.60001-27.49999,25.89999-44.69999l0.10001-0.3c0.10001-0.3,0.10001-0.6,0.10001-1
							c0-3.2-2.60001-5.8-5.8-5.8H143.7c-2.7,0-5.10001,1.9-5.7,4.5c0,0.1,0,0.2-0.10001,0.3c-2.7,12.4-9.10001,23.5-18.6,32.1
							c-0.2,0.2-0.3,0.3-0.5,0.4c-1.9,1.8-2.4,4.6-1.1,6.89999l0.1,0.2l3.6,6.2C123.1,140.40009,126.5,141.20009,129.3,139.70009"/>
					</g>
				</g>
				<g>
					<g>
						<defs>
							<rect id="SVGID_3_" y="0.0001" width="1124.30005" height="158.2"/>
						</defs>
						<clipPath id="SVGID_4_">
							<use xlink:href="#SVGID_3_"  style="overflow:visible;"/>
						</clipPath>
						<path class="st4" d="M52.4,139.40009l-3.6,6.10001c-0.8,1.3-1,2.89999-0.6,4.39999s1.4,2.7,2.7,3.5
							c0.3,0.2,0.6,0.3,0.9,0.39999l0.3,0.10001c16.6,5.7,35,5.8,51.8,0.10001c0.3-0.10001,0.6-0.2,0.9-0.3l0.2-0.10001
							c0.1,0,0.2-0.10001,0.3-0.10001c2.7-1.60001,3.7-4.89999,2.2-7.7l-0.2-0.39999l-3.5-6c-1.4-2.3-4.2-3.3-6.6-2.60001
							c-0.1,0-0.2,0.10001-0.4,0.10001l-0.2,0.10001c-12.2,3.89999-25.1,3.89999-37.3,0l-0.2-0.10001
							C56.6,136.00009,53.7,137.1001,52.4,139.40009"/>
					</g>
				</g>
				<g>
					<g>
						<defs>
							<rect id="SVGID_5_" y="0.0001" width="1124.30005" height="158.2"/>
						</defs>
						<clipPath id="SVGID_6_">
							<use xlink:href="#SVGID_5_"  style="overflow:visible;"/>
						</clipPath>
						<path class="st5" d="M105.4,4.8001c-0.1,0-0.2-0.1-0.3-0.1l-0.2-0.1c-0.3-0.1-0.6-0.2-0.8-0.3c-16.8-5.7-35.2-5.7-51.9,0
							l-0.3,0.1c-0.3,0.1-0.6,0.2-0.9,0.4c-1.3,0.8-2.3,2-2.7,3.5s-0.2,3,0.6,4.4l3.6,6.1c1.4,2.3,4.2,3.4,6.8,2.6l0.2-0.1
							c6.1-2,12.4-2.9,18.6-2.9c6.3,0,12.5,1,18.6,2.9l0.2,0.1c0.1,0,0.2,0.1,0.4,0.1c2.5,0.7,5.2-0.3,6.6-2.5l0.1-0.2l3.6-6.2
							C109.1,9.8001,108.1,6.4001,105.4,4.8001"/>
					</g>
				</g>
				<g>
					<g>
						<defs>
							<rect id="SVGID_7_" y="0.0001" width="1124.30005" height="158.2"/>
						</defs>
						<clipPath id="SVGID_8_">
							<use xlink:href="#SVGID_7_"  style="overflow:visible;"/>
						</clipPath>
						<path class="st6" d="M37.1,34.3001c0.2-0.2,0.3-0.3,0.4-0.4c1.9-1.8,2.4-4.6,1.1-6.9l-0.2-0.4l-3.5-6c-1.1-1.8-3-2.8-5-2.8
							c-1,0-2,0.3-2.9,0.8c-0.1,0-0.2,0.1-0.2,0.2l-0.2,0.2c-0.2,0.2-0.5,0.3-0.7,0.6c-13.4,11.5-22.5,27.3-25.9,44.5v0.3
							c-0.1,0.3-0.1,0.7-0.1,1c0,3.2,2.6,5.8,5.8,5.8h7.1c2.7,0,5.1-1.9,5.7-4.5v-0.3C21.2,54.0001,27.6,42.9001,37.1,34.3001"/>
					</g>
				</g>
				<g>
					<g>
						<defs>
							<rect id="SVGID_9_" y="0.0001" width="1124.30005" height="158.2"/>
						</defs>
						<clipPath id="SVGID_10_">
							<use xlink:href="#SVGID_9_"  style="overflow:visible;"/>
						</clipPath>
						<path class="st7" d="M38.6,131.40009c1.3-2.39999,0.8-5.3-1.1-6.99999c-0.1-0.1-0.2-0.2-0.3-0.3l-0.1-0.1
							c-9.5-8.6-15.9-19.7-18.6-32.1v-0.3c-0.6-2.6-3-4.5-5.7-4.5H5.7c-3.2,0-5.8,2.6-5.8,5.8c0,0.3,0,0.7,0.1,1l0,0.2
							c3.3,17.2,12.5,33.1,25.9,44.59999c0.3,0.2,0.5,0.39999,0.7,0.60001l0.2,0.2c0.1,0.10001,0.1,0.10001,0.2,0.2
							c2.7,1.60001,6.2,0.7,7.8-2l0.1-0.2L38.6,131.40009L38.6,131.40009z"/>
					</g>
				</g>
			</g>
			<path class="st8" d="M150.2,9.8001c-1.89999-3.3-6.10001-4.4-9.39999-2.5c-1.10001,0.6-1.89999,1.5-2.5,2.5l0,0l-24.3,41.9l0,0
				c-0.6,1-0.9,2.2-0.9,3.4c0,3.8,3.1,6.8,6.9,6.8h48.60001l0,0c1.2,0,2.39999-0.3,3.39999-0.9c3.3-1.9,4.39999-6.1,2.5-9.4
				L150.2,9.8001L150.2,9.8001z"/>
			<path class="st2" d="M636.70001,60.3001L636.70001,60.3001c-0.09998-0.1-0.20001-0.2-0.29999-0.3
				c-3.20001-2.5-7.20001-4-11.90002-4h-12.90002c-11.79999,0-22.70001,9.5-24.29999,21.3l0,0l-3.40002,25.4l0,0
				c-1.5,11.8,6.79999,21.3,18.59998,21.3h12.90002c4.59998,0,9.09998-1.5,12.90002-4c0.09998-0.1,0.29999-0.2,0.40002-0.2l0,0
				c0.90002-0.7,1.70001-1.7,1.79999-2.8l0.40002-3.3c0.29999-2-1.09998-3.6-3.09998-3.6l0,0h-5.09998l0,0
				c-1.29999,0-2.5,0.3-3.59998,0.7c-0.29999,0.1-0.5,0.2-0.79999,0.3c-1.09998,0.5-2.40002,0.7-3.59998,0.7h-8.40002
				c-5.09998,0-8.70001-4.1-8-9.2l3.40002-25.4c0.70001-5.1,5.40002-9.2,10.5-9.2h8.40002l0,0c1.29999,0,2.40002,0.3,3.40002,0.7
				c0.20001,0.1,0.5,0.2,0.70001,0.3c1,0.5,2.20001,0.7,3.40002,0.7l0,0h5.09998l0,0c2,0,3.79999-1.6,4.09998-3.6l0.40002-3.3
				C637.90002,62.0001,637.5,61.0001,636.70001,60.3001"/>
			<path class="st2" d="M299.70001,111.8001L299.70001,111.8001c-4.20001-0.8-6.89999-4.5-6.39999-9l8.70001-65.5
				c0.29999-2-1.10001-3.6-3.10001-3.6h-7.20001c-2,0-3.79999,1.6-4.10001,3.6l0,0l-8.70001,65.5l0,0l0,0
				c-1.5,11.8,6.79999,21.3,18.60001,21.3c2,0,3.79999-1.6,4.10001-3.6l0.70001-5.1
				C302.5,113.6001,301.39999,112.1001,299.70001,111.8001"/>
			<path class="st2" d="M773.79999,77.4001L773.79999,77.4001c0.70001-5.1,5.40002-9.2,10.5-9.2h8.40002
				c5.09998,0,8.70001,4.1,8,9.2s-5.29999,8.7-10.40002,8.7h-17.59998L773.79999,77.4001L773.79999,77.4001z M790.90002,98.1001
				c11.79999,0,22.59998-9,24.20001-20.8c1.59998-11.8-6.79999-21.3-18.59998-21.3h-12.90002
				c-11.79999,0-22.70001,9.5-24.29999,21.3l-3.40002,25.4l0,0c-1.59998,11.8,6.79999,21.3,18.59998,21.3h16.90002
				c4.59998,0,9.09998-1.5,12.90002-4c1.20001-0.6,2-1.8,2.20001-3.1l0.40002-3.3c0.29999-2-1.09998-3.6-3.09998-3.6l0,0h-5.09998
				l0,0c-1.29999,0-2.5,0.3-3.59998,0.7c-0.29999,0.1-0.5,0.2-0.79999,0.3c-1.09998,0.5-2.40002,0.7-3.59998,0.7h-12.40002
				c-5.09998,0-8.70001-4.1-8-9.2l0.59998-4.7L790.90002,98.1001L790.90002,98.1001z"/>
			<path class="st2" d="M673.90002,112.0001H665.5c-5.09998,0-8.70001-4.1-8-9.2l3.40002-25.4c0.70001-5.1,5.40002-9.2,10.5-9.2
				h8.40002c5.09998,0,8.70001,4.1,8,9.2l-3.40002,25.4C683.70001,107.9001,679,112.0001,673.90002,112.0001 M702.20001,77.4001
				c1.59998-11.8-6.79999-21.3-18.59998-21.3h-12.90002c-11.79999,0-22.70001,9.5-24.29999,21.3l0,0L643,102.8001
				c-1.59998,11.8,6.79999,21.3,18.59998,21.3H674.5c11.79999,0,22.70001-9.5,24.29999-21.3L702.20001,77.4001L702.20001,77.4001z"
				/>
			<path class="st2" d="M751.90002,56.1001L751.90002,56.1001h-2.79999h-10.20001c-11.79999,0-22.5,9.5-24.09998,21.3l-0.20001,1.3
				l-5.5,41.9c-0.29999,2,1.09998,3.5,3.09998,3.5h7.20001c2,0,3.79999-1.6,4.09998-3.6l5.70001-43.1
				c0.09998-0.6,0.20001-1.3,0.40002-1.9c1.40002-4.2,5.5-7.3,10-7.3l0,0h10.70001c2,0,3.79999-1.6,4.09998-3.6l0.70001-4.9
				C755.29999,57.7001,753.79999,56.1001,751.90002,56.1001"/>
			<path class="st2" d="M465.29999,37.3001L465.29999,37.3001L465.29999,37.3001L465.29999,37.3001z M454.39999,120.5001
				L454.39999,120.5001L454.39999,120.5001L454.39999,120.5001L454.39999,120.5001z M508.60001,77.4001
				c1.5-11.8-6.79999-21.3-18.60001-21.3h-13c-2.39999,0-4.79999,0.4-7.10001,1.2l2.60001-20l0,0l0,0
				c0.29999-2-1.10001-3.6-3.10001-3.6h-7.20001c-2,0-3.79999,1.6-4.10001,3.6l0,0l0,0l-10.89999,83.2
				c-0.29999,2,1.10001,3.6,3.10001,3.6H457.5c2,0,3.79999-1.6,4.10001-3.6l0,0l5.70001-43.1l0,0c0.70001-5.1,5.29999-9.2,10.5-9.2
				h8.39999c5.10001,0,8.70001,4.1,8,9.2l-5.60001,43v0.1c-0.29999,2,1.10001,3.6,3.10001,3.6h7.20001c2,0,3.79999-1.6,4.10001-3.6
				l0,0L508.60001,77.4001L508.60001,77.4001z"/>
			<path class="st2" d="M439.5,60.1001c-3.20001-2.5-7.20001-4-11.89999-4h-18.20001c-11.10001,0-21.29999,9-22.79999,20
				c-1.5,11.1,6.39999,20,17.5,20l0,0l0,0l0,0h13.20001h0.10001c4.39999,0,7.5,3.6,6.89999,7.9c-0.60001,4.4-4.60001,7.9-9,7.9
				h-15.60001l0,0l0,0c-1.20001,0-2.39999-0.3-3.39999-0.7c-0.20001-0.1-0.5-0.2-0.70001-0.3c-1-0.5-2.20001-0.8-3.39999-0.8
				h-5.10001l0,0c-2,0-3.79999,1.6-4.10001,3.6l-0.39999,3.3c-0.20001,1.3,0.39999,2.5,1.39999,3.1
				c3.20001,2.5,7.20001,4,11.89999,4h20.20001c11.10001,0,21.29999-9,22.79999-20c1.5-11.1-6.39999-20-17.5-20h-13.20001l0,0H408
				c-4.39999,0-7.5-3.6-6.89999-7.9c0.60001-4.4,4.60001-7.9,9-7.9h13.60001c1.29999,0,2.39999,0.3,3.39999,0.7
				c0.20001,0.1,0.5,0.2,0.70001,0.3c1,0.5,2.20001,0.8,3.39999,0.8h5.10001l0,0c2,0,3.79999-1.6,4.10001-3.6l0.39999-3.3
				C441.10001,61.8001,440.5,60.7001,439.5,60.1001"/>
			<path class="st2" d="M248.5,33.7001h9.10001l0,0l0,0H248.5L248.5,33.7001z M272.89999,33.7001L272.89999,33.7001h-44.7
				c-2,0-3.8,1.6-4.10001,3.6l-11,83.3c-0.3,2,1.10001,3.5,3.10001,3.5h7.2c2,0,3.8-1.6,4.10001-3.6l4.7-35.4h30.00002
				c2,0,3.79999-1.6,4.10001-3.6l0.70001-5.3c0.29999-2-1.10001-3.6-3.10001-3.6h-30l3.5-26.9h34c2,0,3.79999-1.6,4.10001-3.6
				l0.70001-4.9C276.29999,35.3001,274.89999,33.7001,272.89999,33.7001"/>
			<path class="st2" d="M574.79999,92.6001c1.29999-10.9-6.5-19.8-17.5-19.8l0,0H554h-9.90002c-4.29999,0-7.40002-3.4-6.90002-7.7
				c0-0.1,1.5-11.3,1.5-11.4c0.59998-4.4,4.59998-7.9,9-7.9h15.59998c1.29999,0,2.40002,0.3,3.40002,0.7
				c0.20001,0.1,0.5,0.2,0.70001,0.3c1,0.5,2.20001,0.7,3.40002,0.7l0,0h5.09998l0,0c2,0,3.79999-1.6,4.09998-3.6l0.40002-3.3
				c0.20001-1.3-0.40002-2.5-1.40002-3.1c-3.20001-2.5-7.20001-4-11.90002-4H547c-11.09998,0-21.29999,9-22.79999,20
				c0,0.1-1.5,11.4-1.5,11.5c-1.29999,10.9,6.5,19.8,17.5,19.8l0,0l0,0l0,0h2.40002h9.79999h1H553.5
				c4.29999,0,7.29999,3.4,6.90002,7.6c0,0.1-1.5,11.4-1.5,11.5c-0.59998,4.4-4.59998,7.9-9,7.9h-17.59998l0,0l0,0
				c-1.20001,0-2.40002-0.3-3.40002-0.7c-0.20001-0.1-0.5-0.2-0.70001-0.3c-1-0.5-2.20001-0.7-3.40002-0.7l0,0h-5.09998l0,0
				c-2,0-3.79999,1.6-4.09998,3.6l-0.40002,3.3c-0.20001,1.3,0.40002,2.5,1.40002,3.1c3.20001,2.5,7.20001,4,11.90002,4h22.09998
				c11.09998,0,21.29999-9,22.79999-20C573.29999,104.0001,574.79999,92.7001,574.79999,92.6001"/>
			<g>
				<g>
					<g>
						<defs>
							<rect id="SVGID_11_" y="0.0001" width="1124.30005" height="158.2"/>
						</defs>
						<clipPath id="SVGID_12_">
							<use xlink:href="#SVGID_11_"  style="overflow:visible;"/>
						</clipPath>
						<path class="st9" d="M355.70001,102.8001L355.70001,102.8001c-0.70001,5.1-5.39999,9.2-10.5,9.2h-8.39999
							c-5.10001,0-8.70001-4.1-8-9.2s5.29999-8.7,10.39999-8.7h17.60001L355.70001,102.8001L355.70001,102.8001z M373.60001,77.4001
							c1.60001-11.8-6.79999-21.3-18.60001-21.3h-17c-4.60001,0-9.10001,1.5-12.89999,4c-1.20001,0.6-2,1.8-2.20001,3.1
							l-0.39999,3.3c-0.29999,2,1.10001,3.6,3.10001,3.6l0,0h5.10001l0,0c1.29999,0,2.5-0.3,3.60001-0.7
							c0.29999-0.1,0.5-0.2,0.79999-0.3c1.10001-0.5,2.39999-0.7,3.60001-0.7h12.39999c5.10001,0,8.70001,4.1,8,9.2l-0.60001,4.7
							h-19.89999c-11.79999,0-22.60001,9-24.20001,20.8s6.79999,21.3,18.60001,21.3h13c4.39999,0,8.70001-1.3,12.39999-3.6l0,0
							c-0.29999,2,1.10001,3.6,3.10001,3.6h2.29999c2,0,3.79999-1.6,4.10001-3.6L373.60001,77.4001L373.60001,77.4001z"/>
					</g>
				</g>
				<g>
					<g>
						<defs>
							<rect id="SVGID_13_" y="0.0001" width="1124.30005" height="158.2"/>
						</defs>
						<clipPath id="SVGID_14_">
							<use xlink:href="#SVGID_13_"  style="overflow:visible;"/>
						</clipPath>
						<path class="st10" d="M1109.69995,77.4001c-0.69995,5.1-5.30005,8.7-10.40002,8.7h-17.59998l1.09998-8.7l0,0
							c0.69995-5.1,5.40002-9.2,10.5-9.2h8.40002C1106.69995,68.2001,1110.30005,72.3001,1109.69995,77.4001L1109.69995,77.4001z
							 M1105.5,56.1001h-12.90002c-11.80005,0-22.69995,9.5-24.19995,21.3l0,0l-3.40002,25.4l0,0
							c-1.59998,11.8,6.80005,21.3,18.59998,21.3H1100.5c4.59998,0,9.09998-1.5,12.90002-4c1.19995-0.6,2-1.8,2.19995-3.1
							l0.40002-3.3c0.30005-2-1.19995-3.6-3.19995-3.6l0,0h-5.09998l0,0c-1.30005,0-2.5,0.3-3.59998,0.7
							c-0.30005,0.1-0.5,0.2-0.80005,0.3c-1.09998,0.5-2.40002,0.7-3.59998,0.7h-12.30005c-5.09998,0-8.69995-4.1-8-9.2l0.59998-4.7
							h19.90002c11.80005,0,22.59998-9,24.19995-20.8C1125.69995,65.6001,1117.30005,56.1001,1105.5,56.1001L1105.5,56.1001z"/>
					</g>
				</g>
			</g>
			<path class="st2" d="M1054.40002,118.9001L1054.40002,118.9001L1043,87.7001l16.80005-26.5l0,0c0.30005-0.5,0.5-1,0.59998-1.6
				c0.30005-2-1.09998-3.6-3.09998-3.6h-7.19995c-1.40002,0-2.69995,0.8-3.5,2l0,0l-15.19995,24h-12.59998l5.90002-44.7l0,0
				c0.30005-2-1.09998-3.6-3.09998-3.6h-7.20001c-2,0-3.79999,1.6-4.09998,3.6c0,0.2,0,0.4,0,0.6l-10.90002,82.60001l0,0l0,0
				c-0.29999,2,1.09998,3.6,3.09998,3.6h7.20001c2,0,3.79999-1.6,4.09998-3.6l0,0l0,0l0.20001-1.5l0,0l3.29999-24.8h13
				l10.19995,27.9l0,0c0.40002,1.2,1.59998,2.1,3,2.1h7.19995c2,0,3.80005-1.6,4.09998-3.6
				C1054.69995,119.9001,1054.59998,119.4001,1054.40002,118.9001L1054.40002,118.9001z"/>
		</g>
	</g>
</g>
</svg>
